<?xml version="1.0" encoding="iso-8859-1"?>
<!-- Generator: Adobe Illustrator 15.0.0, SVG Export Plug-In . SVG Version: 6.00 Build 0)  -->
<!DOCTYPE svg PUBLIC "-//W3C//DTD SVG 1.1//EN" "http://www.w3.org/Graphics/SVG/1.1/DTD/svg11.dtd">
<svg version="1.1" xmlns="http://www.w3.org/2000/svg" xmlns:xlink="http://www.w3.org/1999/xlink" x="0px" y="0px" width="100px"
	 height="100px" viewBox="0 0 235 235" style="enable-background:new 0 0 235 235;" xml:space="preserve">
<g id="UnknownManmade">
	<rect style="fill:#B1B1B1;" width="235" height="235"/>
	<path style="fill:#E3E3E3;" d="M117.5,18.502c-54.676,0-99,44.323-99,98.999c0,54.675,44.324,98.999,99,98.999
		c54.675,0,98.999-44.324,98.999-98.999C216.499,62.825,172.175,18.502,117.5,18.502z M117.5,202.979
		c-47.209,0-85.479-38.27-85.479-85.478c0-47.209,38.27-85.479,85.479-85.479c47.208,0,85.479,38.271,85.479,85.479
		C202.979,164.709,164.708,202.979,117.5,202.979z"/>
	<path style="fill:#EDA33F;" d="M197.227,117.501c0,44.03-35.694,79.724-79.726,79.724c-44.033,0-79.728-35.693-79.728-79.724
		c0-44.033,35.694-79.729,79.728-79.729C161.532,37.772,197.227,73.468,197.227,117.501z"/>
	<g>
		<path style="fill:#634207;" d="M143.367,98.866c0,3.355-0.489,6.32-1.469,8.896s-2.365,4.809-4.157,6.703
			c-1.793,1.895-3.942,3.589-6.448,5.084c-2.507,1.495-5.337,2.856-8.49,4.086v11.363h-17.526v-16.795
			c2.356-0.632,4.489-1.28,6.398-1.944c1.908-0.665,3.908-1.745,6-3.241c1.958-1.33,3.493-2.876,4.605-4.637
			c1.112-1.762,1.668-3.757,1.668-5.984c0-3.323-1.07-5.692-3.212-7.105c-2.141-1.413-5.153-2.119-9.037-2.119
			c-2.39,0-5.087,0.515-8.091,1.543c-3.005,1.03-5.751,2.357-8.241,3.984h-1.992V83.512c2.124-0.896,5.394-1.834,9.81-2.813
			c4.415-0.979,8.895-1.469,13.444-1.469c8.198,0,14.705,1.812,19.519,5.433S143.367,93.019,143.367,98.866z M124.197,154.915
			h-20.116V141.77h20.116V154.915z"/>
	</g>
</g>
<g id="Layer_1">
</g>
</svg>
